<mxfile host="app.diagrams.net" modified="2024-03-08T20:08:25.719Z" agent="Mozilla/5.0 (Windows NT 10.0; Win64; x64) AppleWebKit/537.36 (KHTML, like Gecko) Chrome/122.0.0.0 Safari/537.36 Edg/122.0.0.0" etag="wchsI7wQR2cGMR0J9YWs" version="23.1.7" type="device">
  <diagram name="PÃ¡gina-1" id="aflP0IknNWOV-XmlazaR">
    <mxGraphModel dx="1307" dy="599" grid="1" gridSize="10" guides="1" tooltips="1" connect="1" arrows="1" fold="1" page="1" pageScale="1" pageWidth="827" pageHeight="1169" math="0" shadow="0">
      <root>
        <mxCell id="0" />
        <mxCell id="1" parent="0" />
        <mxCell id="Wj-DR0teLRXhnAtGao1j-3" value="" style="edgeStyle=orthogonalEdgeStyle;rounded=0;orthogonalLoop=1;jettySize=auto;html=1;" edge="1" parent="1" source="Wj-DR0teLRXhnAtGao1j-1" target="Wj-DR0teLRXhnAtGao1j-2">
          <mxGeometry relative="1" as="geometry" />
        </mxCell>
        <mxCell id="Wj-DR0teLRXhnAtGao1j-1" value="INICIO" style="ellipse;whiteSpace=wrap;html=1;" vertex="1" parent="1">
          <mxGeometry x="10" y="10" width="120" height="80" as="geometry" />
        </mxCell>
        <mxCell id="Wj-DR0teLRXhnAtGao1j-8" value="" style="edgeStyle=orthogonalEdgeStyle;rounded=0;orthogonalLoop=1;jettySize=auto;html=1;" edge="1" parent="1" source="Wj-DR0teLRXhnAtGao1j-2" target="Wj-DR0teLRXhnAtGao1j-7">
          <mxGeometry relative="1" as="geometry" />
        </mxCell>
        <mxCell id="Wj-DR0teLRXhnAtGao1j-2" value="INGRESAR LOS VALORES DE &quot;A&quot; Y &quot;B&quot;" style="rounded=1;whiteSpace=wrap;html=1;" vertex="1" parent="1">
          <mxGeometry x="270" y="20" width="120" height="60" as="geometry" />
        </mxCell>
        <mxCell id="Wj-DR0teLRXhnAtGao1j-10" value="" style="edgeStyle=orthogonalEdgeStyle;rounded=0;orthogonalLoop=1;jettySize=auto;html=1;" edge="1" parent="1" source="Wj-DR0teLRXhnAtGao1j-7" target="Wj-DR0teLRXhnAtGao1j-9">
          <mxGeometry relative="1" as="geometry" />
        </mxCell>
        <mxCell id="Wj-DR0teLRXhnAtGao1j-12" value="" style="edgeStyle=orthogonalEdgeStyle;rounded=0;orthogonalLoop=1;jettySize=auto;html=1;" edge="1" parent="1" source="Wj-DR0teLRXhnAtGao1j-7" target="Wj-DR0teLRXhnAtGao1j-11">
          <mxGeometry relative="1" as="geometry" />
        </mxCell>
        <mxCell id="Wj-DR0teLRXhnAtGao1j-7" value="MOSTRAR SOLAMENTE SI &quot;B &amp;gt; A&quot;" style="rhombus;whiteSpace=wrap;html=1;rounded=1;" vertex="1" parent="1">
          <mxGeometry x="470" y="10" width="200" height="200" as="geometry" />
        </mxCell>
        <mxCell id="Wj-DR0teLRXhnAtGao1j-14" value="" style="edgeStyle=orthogonalEdgeStyle;rounded=0;orthogonalLoop=1;jettySize=auto;html=1;" edge="1" parent="1" source="Wj-DR0teLRXhnAtGao1j-9">
          <mxGeometry relative="1" as="geometry">
            <mxPoint x="925" y="400" as="targetPoint" />
          </mxGeometry>
        </mxCell>
        <mxCell id="Wj-DR0teLRXhnAtGao1j-9" value="NO" style="whiteSpace=wrap;html=1;rounded=1;" vertex="1" parent="1">
          <mxGeometry x="850" y="80" width="150" height="60" as="geometry" />
        </mxCell>
        <mxCell id="Wj-DR0teLRXhnAtGao1j-17" value="" style="edgeStyle=orthogonalEdgeStyle;rounded=0;orthogonalLoop=1;jettySize=auto;html=1;" edge="1" parent="1" source="Wj-DR0teLRXhnAtGao1j-11" target="Wj-DR0teLRXhnAtGao1j-16">
          <mxGeometry relative="1" as="geometry" />
        </mxCell>
        <mxCell id="Wj-DR0teLRXhnAtGao1j-11" value="SI" style="whiteSpace=wrap;html=1;rounded=1;" vertex="1" parent="1">
          <mxGeometry x="310" y="400" width="170" height="60" as="geometry" />
        </mxCell>
        <mxCell id="Wj-DR0teLRXhnAtGao1j-15" value="FIN" style="ellipse;whiteSpace=wrap;html=1;" vertex="1" parent="1">
          <mxGeometry x="865" y="400" width="120" height="80" as="geometry" />
        </mxCell>
        <mxCell id="Wj-DR0teLRXhnAtGao1j-16" value="MOSTRAR RESULTADO" style="whiteSpace=wrap;html=1;rounded=1;" vertex="1" parent="1">
          <mxGeometry x="585" y="400" width="120" height="60" as="geometry" />
        </mxCell>
        <mxCell id="Wj-DR0teLRXhnAtGao1j-18" style="edgeStyle=orthogonalEdgeStyle;rounded=0;orthogonalLoop=1;jettySize=auto;html=1;entryX=0.026;entryY=0.384;entryDx=0;entryDy=0;entryPerimeter=0;" edge="1" parent="1" source="Wj-DR0teLRXhnAtGao1j-16" target="Wj-DR0teLRXhnAtGao1j-15">
          <mxGeometry relative="1" as="geometry" />
        </mxCell>
      </root>
    </mxGraphModel>
  </diagram>
</mxfile>
